<?xml version="1.0" encoding="UTF-8" standalone="no"?>
<svg
   xmlns:dc="http://purl.org/dc/elements/1.1/"
   xmlns:cc="http://creativecommons.org/ns#"
   xmlns:rdf="http://www.w3.org/1999/02/22-rdf-syntax-ns#"
   xmlns:svg="http://www.w3.org/2000/svg"
   xmlns="http://www.w3.org/2000/svg"
   xmlns:sodipodi="http://sodipodi.sourceforge.net/DTD/sodipodi-0.dtd"
   xmlns:inkscape="http://www.inkscape.org/namespaces/inkscape"
   version="1.1"
   id="svg4984"
   width="16"
   height="16"
   viewBox="0 0 665.66669 630.66669"
   sodipodi:docname="fd-logo.svg"
   inkscape:version="1.0 (4035a4fb49, 2020-05-01)"
   inkscape:export-filename="/home/viise/fd-api-logo.png"
   inkscape:export-xdpi="200"
   inkscape:export-ydpi="200">
  <metadata
     id="metadata4990">
    <rdf:RDF>
      <cc:Work
         rdf:about="">
        <dc:format>image/svg+xml</dc:format>
        <dc:type
           rdf:resource="http://purl.org/dc/dcmitype/StillImage" />
        <dc:title></dc:title>
      </cc:Work>
    </rdf:RDF>
  </metadata>
  <defs
     id="defs4988" />
  <sodipodi:namedview
     pagecolor="#000000"
     bordercolor="#666666"
     borderopacity="1"
     objecttolerance="10"
     gridtolerance="10"
     guidetolerance="10"
     inkscape:pageopacity="0"
     inkscape:pageshadow="2"
     inkscape:window-width="1920"
     inkscape:window-height="1001"
     id="namedview4986"
     showgrid="false"
     inkscape:zoom="0.77"
     inkscape:cx="484.48065"
     inkscape:cy="372.88025"
     inkscape:window-x="0"
     inkscape:window-y="38"
     inkscape:window-maximized="1"
     inkscape:current-layer="svg4984"
     inkscape:pagecheckerboard="true"
     inkscape:document-rotation="0" />
  <path
     style="fill:#ffffff;fill-opacity:1;stroke-width:0.952381"
     d="m 361.07948,617.2396 -67.85714,-0.24444 V 438.90627 260.81738 h 68.09524 68.09523 v 106.19047 106.19048 h 5.69255 c 3.66128,0 7.82428,-0.80246 11.66666,-2.24886 8.05579,-3.03246 19.12998,-8.67311 20.66937,-10.52796 0.68875,-0.8299 1.81992,-1.5089 2.51372,-1.5089 1.66081,0 23.26723,-21.70873 23.26723,-23.37742 0,-0.7094 0.53987,-1.63256 1.19972,-2.05144 1.76705,-1.12176 6.30293,-8.29326 10.72196,-16.95209 3.35994,-6.58355 5.1727,-10.63519 8.94832,-20 1.88286,-4.67012 5.21628,-17.7314 7.65644,-30 3.87958,-19.50576 3.61657,-68.05052 -0.51083,-94.28571 -7.81243,-49.65852 -30.65087,-84.14522 -64.32388,-97.13091 -15.4712,-5.96632 -8.27142,-5.69162 -149.64411,-5.7097 l -129.28572,-0.0165 v 45.71429 45.71429 h 38.09524 38.09524 v 69.52381 69.5238 H 216.07948 177.98424 V 508.43642 617.00785 H 102.74615 27.508051 V 324.6269 32.24595 l 74.523809,-0.007 c 306.43842,-0.0285 339.82354,0.0658 347.38274,0.98084 44.0585,5.33338 86.78584,25.13748 119.45808,55.36876 8.43553,7.80532 23.48449,24.93601 25.74372,29.30489 0.80834,1.56314 3.34431,5.53905 5.6355,8.83535 2.29119,3.29631 5.39685,8.3016 6.90146,11.12289 8.07736,15.14584 12.73564,24.46131 12.73564,25.46827 0,0.62211 1.01578,3.20637 2.25728,5.74279 1.24151,2.53644 3.0071,6.54028 3.92354,8.89742 0.91644,2.35715 2.03103,5.14286 2.47687,6.19048 0.44584,1.04762 1.71088,4.69048 2.8112,8.09524 1.10032,3.40476 2.37357,7.04762 2.82944,8.09524 0.45586,1.04761 1.12258,3.39069 1.4816,5.20683 0.35901,1.81614 0.9762,3.95899 1.37153,4.76191 1.04342,2.11918 2.34314,7.45634 6.96538,28.60268 5.36517,24.54516 7.73161,57.08441 6.99551,96.19048 -0.55233,29.343 -1.79684,44.80239 -4.98346,61.90476 -0.82959,4.45238 -1.87049,10.02381 -2.3131,12.38095 -0.44261,2.35715 -2.15597,9.21429 -3.80745,15.2381 -1.65148,6.02381 -3.42963,12.66667 -3.95143,14.7619 -0.52181,2.09524 -1.29358,4.46645 -1.71506,5.26936 -0.42147,0.80291 -1.08959,2.9317 -1.4847,4.73064 -0.39512,1.79895 -1.05536,3.92774 -1.46722,4.73065 -0.41187,0.80291 -2.11123,5.31697 -3.77636,10.03126 -3.30217,9.34899 -4.91394,13.03993 -12.26861,28.09524 -4.62525,9.46806 -6.64263,13.19904 -7.72591,14.28838 -0.2619,0.26337 -1.51349,2.40623 -2.7813,4.7619 -1.26782,2.35568 -4.26782,7.2327 -6.66667,10.83781 -2.39886,3.60513 -5.25771,8.01276 -6.35301,9.79475 -7.55993,12.29956 -45.29937,50.79335 -49.79795,50.79335 -0.47517,0 -1.09317,0.59736 -1.37334,1.32747 -0.65303,1.70175 -30.98481,16.62903 -41.59916,20.47234 -13.45942,4.87346 -24.05988,7.55115 -34.39629,8.68855 -5.40249,0.59448 -10.25042,1.34521 -10.77319,1.6683 -3.04996,1.88498 -30.52317,2.58474 -92.68766,2.3608 z"
     id="path8817-6"
     inkscape:connector-curvature="0" />
  <path
     style="fill:#ff0000;fill-opacity:1;stroke-width:0.952381"
     d="m 348.59242,600.12435 -67.85714,-0.24444 V 421.79102 243.70213 h 68.09524 68.09523 V 349.8926 456.08308 h 5.69255 c 3.66128,0 7.82428,-0.80246 11.66666,-2.24886 8.05579,-3.03246 19.12998,-8.67311 20.66937,-10.52796 0.68875,-0.8299 1.81992,-1.5089 2.51372,-1.5089 1.66081,0 23.26723,-21.70873 23.26723,-23.37742 0,-0.7094 0.53987,-1.63256 1.19972,-2.05144 1.76705,-1.12176 6.30293,-8.29326 10.72196,-16.95209 3.35994,-6.58355 5.1727,-10.63519 8.94832,-20 1.88286,-4.67012 5.21628,-17.7314 7.65644,-30 3.87958,-19.50576 3.61657,-68.05052 -0.51083,-94.28571 -7.81243,-49.65852 -30.65087,-84.14522 -64.32388,-97.13091 -15.4712,-5.96632 -8.27142,-5.69162 -149.64411,-5.7097 l -129.28572,-0.0165 v 45.71429 45.71429 h 38.09524 38.09524 v 69.52381 69.5238 H 203.59242 165.49718 V 491.32117 599.8926 H 90.259088 15.020992 V 307.51165 15.1307 l 74.52381,-0.007 c 306.438418,-0.0285 339.823538,0.0658 347.382738,0.98084 44.0585,5.33338 86.78584,25.13748 119.45808,55.36876 8.43553,7.80532 23.48449,24.93601 25.74372,29.30489 0.80834,1.56314 3.34431,5.53905 5.6355,8.83535 2.29119,3.29631 5.39685,8.3016 6.90146,11.12289 8.07736,15.14584 12.73564,24.46131 12.73564,25.46827 0,0.62211 1.01578,3.20637 2.25728,5.74279 1.24151,2.53644 3.0071,6.54028 3.92354,8.89742 0.91644,2.35715 2.03103,5.14286 2.47687,6.19048 0.44584,1.04762 1.71088,4.69048 2.8112,8.09524 1.10032,3.40476 2.37357,7.04762 2.82944,8.09524 0.45586,1.04761 1.12258,3.39069 1.4816,5.20683 0.35901,1.81614 0.9762,3.95899 1.37153,4.76191 1.04342,2.11918 2.34314,7.45634 6.96538,28.60268 5.36517,24.54516 7.73161,57.08441 6.99551,96.19048 -0.55233,29.343 -1.79684,44.80239 -4.98346,61.90476 -0.82959,4.45238 -1.87049,10.02381 -2.3131,12.38095 -0.44261,2.35715 -2.15597,9.21429 -3.80745,15.2381 -1.65148,6.02381 -3.42963,12.66667 -3.95143,14.7619 -0.52181,2.09524 -1.29358,4.46645 -1.71506,5.26936 -0.42147,0.80291 -1.08959,2.9317 -1.4847,4.73064 -0.39512,1.79895 -1.05536,3.92774 -1.46722,4.73065 -0.41187,0.80291 -2.11123,5.31697 -3.77636,10.03126 -3.30217,9.34899 -4.91394,13.03993 -12.26861,28.09524 -4.62525,9.46806 -6.64263,13.19904 -7.72591,14.28838 -0.2619,0.26337 -1.51349,2.40623 -2.7813,4.7619 -1.26782,2.35568 -4.26782,7.2327 -6.66667,10.83781 -2.39886,3.60513 -5.25771,8.01276 -6.35301,9.79475 -7.55993,12.29956 -45.29937,50.79335 -49.79795,50.79335 -0.47517,0 -1.09317,0.59736 -1.37334,1.32747 -0.65303,1.70175 -30.98481,16.62903 -41.59916,20.47234 -13.45942,4.87346 -24.05988,7.55115 -34.39629,8.68855 -5.40249,0.59448 -10.25042,1.34521 -10.77319,1.6683 -3.04996,1.88498 -30.52317,2.58474 -92.68766,2.3608 z"
     id="path8817"
     inkscape:connector-curvature="0" />
</svg>
